<svg width="20" height="20" viewBox="0 0 20 20" fill="none" xmlns="http://www.w3.org/2000/svg">
<rect width="20" height="20" fill="white"/>
<path d="M11.0709 12.7481L11.0694 12.7474C10.947 12.6862 10.8368 12.631 10.7436 12.5732C9.75478 11.9451 8.85447 11.1256 7.98917 10.0626C7.59124 9.55951 7.31976 9.13509 7.12066 8.71082C7.3527 8.49558 7.57081 8.27425 7.78145 8.06049C7.80566 8.03592 7.82977 8.01146 7.85379 7.98711C7.9013 7.9396 7.94875 7.8913 7.99583 7.84338L7.99602 7.84319C8.04335 7.79501 8.09032 7.74721 8.13723 7.70029C8.50736 7.33017 8.69838 6.89882 8.69838 6.46116C8.69838 6.02351 8.50736 5.59216 8.13723 5.22203L7.21532 4.30013C7.11043 4.19523 7.00353 4.08832 6.90351 3.98163L6.90352 3.98163L6.90242 3.98049C6.69995 3.77127 6.48601 3.55389 6.26479 3.34961C5.92123 3.01014 5.50551 2.82551 5.06441 2.82551C4.62306 2.82551 4.20059 3.01034 3.847 3.34978L3.84699 3.34976L3.84554 3.35121L3.83879 3.35796L3.83879 3.35796L3.83848 3.35827L2.69063 4.51625C2.69058 4.5163 2.69053 4.51635 2.69047 4.51641C2.24173 4.96522 1.98503 5.51388 1.92893 6.14843H1.92893L1.92888 6.14905C1.84597 7.15784 2.143 8.09349 2.36703 8.69769C2.91872 10.1859 3.74234 11.5632 4.96727 13.0359L4.96749 13.0361C6.45547 14.8129 8.24633 16.2164 10.2923 17.2054L10.293 17.2058C11.0721 17.575 12.123 18.0176 13.3011 18.0932L13.3028 18.0933C13.3734 18.0967 13.45 18.1002 13.5203 18.1002C14.3272 18.1002 15.0093 17.809 15.5423 17.2304L15.5519 17.22L15.553 17.2179C15.5538 17.217 15.5547 17.216 15.5556 17.2149C15.558 17.2121 15.5607 17.2086 15.5635 17.2045C15.7214 17.014 15.9018 16.8396 16.0965 16.6512C16.1118 16.6364 16.1271 16.6216 16.1426 16.6067C16.2882 16.4678 16.4378 16.3216 16.5843 16.1682C16.9337 15.8048 17.1222 15.3756 17.1222 14.9305C17.1222 14.4815 16.9298 14.0551 16.5727 13.7014C16.5726 13.7013 16.5725 13.7012 16.5725 13.7012L14.7197 11.8416C14.3762 11.4843 13.9563 11.2881 13.5068 11.2881C13.0607 11.2881 12.6378 11.4808 12.2811 11.8375L11.2664 12.849C11.2293 12.8296 11.1922 12.8106 11.156 12.792C11.127 12.7771 11.0985 12.7625 11.0709 12.7481ZM15.9221 15.3951C15.9024 15.4187 15.8812 15.4424 15.8584 15.4661L15.8571 15.4649V15.369C15.8654 15.3692 15.8747 15.3704 15.8846 15.3735C15.897 15.3774 15.9103 15.3843 15.9221 15.3951ZM15.453 15.7322C15.4277 15.7568 15.4019 15.7819 15.3757 15.8075C15.1563 16.0168 14.931 16.2385 14.7187 16.4882C14.3977 16.8307 14.0231 16.9918 13.5237 16.9918C13.4723 16.9918 13.4217 16.9917 13.375 16.9886L13.3747 16.9886C12.3919 16.9257 11.4744 16.5413 10.7776 16.208C8.87943 15.2891 7.21245 13.9845 5.82677 12.3304C4.68096 10.9494 3.91753 9.67587 3.41232 8.31079L3.41222 8.31051C3.10134 7.47816 2.99094 6.83837 3.03997 6.23986C3.07177 5.86826 3.21353 5.56281 3.47705 5.29929L4.62745 4.14889C4.78109 4.00502 4.93301 3.93728 5.07117 3.93728C5.24379 3.93728 5.39165 4.04253 5.49349 4.14438L5.5642 4.07367L5.49349 4.14438L5.50362 4.15451L5.50358 4.15455L5.50606 4.15686C5.71012 4.34755 5.90454 4.54528 6.11034 4.75783L6.11036 4.75785C6.16303 4.81222 6.2165 4.86653 6.27006 4.92094L6.27129 4.92219C6.32454 4.97628 6.37789 5.03047 6.4312 5.08545L6.43119 5.08546L6.43228 5.08654L7.35419 6.00845C7.52366 6.17792 7.59336 6.32617 7.59336 6.46116C7.59336 6.59615 7.52366 6.7444 7.35419 6.91388C7.32051 6.94755 7.28768 6.98077 7.25522 7.01361C7.19159 7.07799 7.12938 7.14092 7.06502 7.20307L7.06499 7.20303L7.06294 7.20513C6.77967 7.49515 6.51137 7.76339 6.22011 8.02452L6.22001 8.02441L6.21722 8.02721L6.21588 8.02832L6.21208 8.0315C6.20828 8.03475 6.20053 8.04151 6.19259 8.05189C6.03706 8.21001 5.96883 8.37164 5.95115 8.52437C5.93353 8.67657 5.96716 8.81165 5.99902 8.91254L5.99901 8.91255L5.99951 8.91405L6.00458 8.92925L6.00964 8.94444L6.00941 8.94452L6.01208 8.95098C6.25636 9.54276 6.59963 10.0978 7.1167 10.7543L7.11615 10.7548L7.12428 10.7629C8.0611 11.9162 9.05064 12.8175 10.1438 13.5089C10.2866 13.5994 10.4322 13.6722 10.5662 13.7392L10.568 13.7401C10.6907 13.8014 10.8011 13.8567 10.8943 13.9146L10.8941 13.915L10.9023 13.9191C10.9041 13.92 10.9067 13.9215 10.9143 13.9263C10.9202 13.93 10.9311 13.9368 10.9429 13.9427C11.0697 14.0061 11.1929 14.0377 11.3219 14.0377C11.6436 14.0377 11.8442 13.8371 11.9048 13.7765L11.9059 13.7754L13.0608 12.6205C13.1712 12.5102 13.3288 12.3965 13.5 12.3965C13.6677 12.3965 13.8151 12.5037 13.9124 12.6104L13.9123 12.6105L13.9156 12.6137L13.919 12.6171L13.9223 12.6205L15.783 14.4812L15.7834 14.4815C15.9457 14.6423 16.0147 14.7931 16.015 14.9341C16.0154 15.0731 15.9491 15.2246 15.7936 15.3891C15.7874 15.394 15.781 15.4001 15.7752 15.4077C15.7743 15.4089 15.7733 15.4103 15.7722 15.4119C15.6697 15.5215 15.5651 15.6232 15.453 15.7322ZM6.21759 8.0269L6.21736 8.02712L6.21759 8.0269Z" fill="#222222" stroke="#222222" stroke-width="0.2"/>
<path d="M14.7279 9.81577L14.7279 9.81583L14.7315 9.81525C15.0375 9.76563 15.2381 9.47654 15.189 9.17373L15.1889 9.17295C15.003 8.08183 14.4867 7.08711 13.6988 6.29928C12.911 5.51145 11.9163 4.99506 10.8252 4.8092L10.8252 4.80919L10.8244 4.80907C10.5209 4.75985 10.2367 4.9611 10.1831 5.26171C10.1299 5.56088 10.3263 5.85476 10.6334 5.90471C11.4971 6.04982 12.2819 6.45854 12.909 7.0857C13.536 7.71268 13.9416 8.49752 14.0901 9.36173C14.1356 9.63428 14.3711 9.82329 14.6378 9.82329C14.6688 9.82329 14.6967 9.81974 14.7199 9.81678C14.7226 9.81644 14.7253 9.81609 14.7279 9.81577Z" fill="#222222" stroke="#222222" stroke-width="0.2"/>
<path d="M10.3119 2.36106L10.3119 2.36106L10.3117 2.36259C10.2624 2.66651 10.4642 2.95053 10.7679 3.00389L10.7685 3.00399C12.3214 3.26725 13.7378 4.00362 14.8648 5.12725C15.9916 6.25408 16.7247 7.67041 16.988 9.22335C17.0335 9.49594 17.269 9.68499 17.5357 9.68499C17.5667 9.68499 17.5946 9.68144 17.6178 9.67848C17.6205 9.67813 17.6232 9.67779 17.6258 9.67746L17.6258 9.6775L17.6283 9.67712C17.9307 9.63156 18.1367 9.34261 18.0835 9.04138C17.7794 7.25804 16.9389 5.6352 15.6478 4.34418C14.3569 3.05325 12.7342 2.21273 10.951 1.90862C10.6482 1.8549 10.3651 2.06236 10.3119 2.36106Z" fill="#222222" stroke="#222222" stroke-width="0.2"/>
</svg>
