<svg width="16" height="16" viewBox="0 0 16 16" fill="none" xmlns="http://www.w3.org/2000/svg">
<path d="M8.17 8.9C7.98333 8.9 7.88333 8.79333 7.87 8.58L7.65 4.6C7.63667 4.42667 7.67667 4.28333 7.77 4.17C7.87 4.05667 8 4 8.16 4C8.32667 4 8.45667 4.05667 8.55 4.17C8.64333 4.28333 8.68333 4.42667 8.67 4.6L8.46 8.58C8.45333 8.68667 8.42333 8.76667 8.37 8.82C8.32333 8.87333 8.25667 8.9 8.17 8.9ZM8.11 11C7.95 11 7.82667 10.9567 7.74 10.87C7.66 10.7767 7.62 10.65 7.62 10.49V10.3C7.62 10.14 7.66 10.0167 7.74 9.93C7.82667 9.83667 7.95 9.79 8.11 9.79H8.22C8.38 9.79 8.5 9.83667 8.58 9.93C8.66667 10.0167 8.71 10.14 8.71 10.3V10.49C8.71 10.65 8.66667 10.7767 8.58 10.87C8.5 10.9567 8.38 11 8.22 11H8.11Z" fill="#DE080D"/>
<circle cx="8" cy="8" r="7.5" stroke="#DE080D"/>
</svg>
