<svg width="18" height="18" viewBox="0 0 18 18" fill="none" xmlns="http://www.w3.org/2000/svg">
<g clip-path="url(#clip0)">
<path d="M16.3085 4.02333L15.9111 2.832C15.7597 2.37827 15.3366 2.07339 14.8584 2.07339H11.5182V0.985886C11.5182 0.442337 11.0763 0 10.5328 0H7.47397C6.9307 0 6.48864 0.442337 6.48864 0.985886V2.07339H3.14852C2.6702 2.07339 2.24709 2.37827 2.09575 2.832L1.69832 4.02333C1.60782 4.29456 1.65369 4.59489 1.82082 4.82684C1.98795 5.05879 2.25835 5.19736 2.54427 5.19736H2.95969L3.87403 16.5038C3.94201 17.3427 4.65392 18 5.49506 18H12.6973C13.5383 18 14.2503 17.3427 14.3182 16.5037L15.2325 5.19736H15.4625C15.7485 5.19736 16.0189 5.05879 16.186 4.82698C16.3531 4.59503 16.399 4.29456 16.3085 4.02333ZM7.54332 1.05469H10.4635V2.07339H7.54332V1.05469ZM13.2669 16.4187C13.243 16.7141 12.9928 16.9453 12.6973 16.9453H5.49506C5.19953 16.9453 4.94931 16.7141 4.92542 16.4187L4.01781 5.19736H14.1744L13.2669 16.4187ZM2.77045 4.14267L3.09633 3.16571C3.10375 3.14319 3.12476 3.12808 3.14852 3.12808H14.8584C14.8822 3.12808 14.9031 3.14319 14.9106 3.16571L15.2365 4.14267H2.77045Z" fill="#222222"/>
<path d="M11.5845 16.3813C11.5939 16.3818 11.6031 16.3819 11.6124 16.3819C11.891 16.3819 12.1239 16.1636 12.1385 15.8821L12.6337 6.37587C12.6488 6.085 12.4252 5.83685 12.1345 5.82174C11.843 5.80623 11.5956 6.03007 11.5804 6.32094L11.0853 15.8271C11.0702 16.118 11.2936 16.3661 11.5845 16.3813Z" fill="#222222"/>
<path d="M5.89105 15.8833C5.90643 16.1644 6.13906 16.382 6.41715 16.382C6.42676 16.382 6.43665 16.3817 6.4464 16.3811C6.73713 16.3654 6.96001 16.1168 6.94422 15.8259L6.42553 6.31973C6.40974 6.02886 6.16117 5.80598 5.87031 5.82191C5.57959 5.8377 5.3567 6.08627 5.37249 6.37713L5.89105 15.8833Z" fill="#222222"/>
<path d="M9.00891 16.382C9.30019 16.382 9.53625 16.1459 9.53625 15.8546V6.34845C9.53625 6.05717 9.30019 5.82111 9.00891 5.82111C8.71764 5.82111 8.48157 6.05717 8.48157 6.34845V15.8546C8.48157 16.1459 8.71764 16.382 9.00891 16.382Z" fill="#222222"/>
</g>
<defs>
<clipPath id="clip0">
<rect width="18" height="18" fill="white"/>
</clipPath>
</defs>
</svg>
