<svg width="11" height="12" viewBox="0 0 11 12" fill="none" xmlns="http://www.w3.org/2000/svg">
<path d="M10.2496 5.86128C9.81776 5.44661 9.20931 5.39899 8.78802 5.39899C8.57176 5.39899 8.36277 5.41321 8.16502 5.42842C8.14948 5.42842 8.11972 5.41982 8.09393 5.41056C8.05259 5.39833 8.00332 5.38279 7.94711 5.38014C7.74638 5.33682 7.59063 5.29483 7.44414 5.17876C7.1462 4.91389 6.88464 4.58255 6.63101 4.26245L6.45012 4.03428C6.11812 3.63449 5.71238 3.10309 5.50967 2.53201C5.40253 2.24696 5.35921 1.94472 5.3741 1.57932C5.37707 1.50955 5.38104 1.44242 5.38435 1.37662C5.39989 1.11108 5.41444 0.860426 5.3278 0.602827C5.20512 0.21924 4.90321 0 4.49879 0C4.22763 0 3.94193 0.103172 3.725 0.275786C3.18103 0.654082 2.83118 1.37099 2.78852 2.19571C2.76669 2.65733 2.90723 3.05547 3.04347 3.43906C3.16218 3.77371 3.27462 4.0895 3.27329 4.43109C3.27197 4.94894 2.82456 5.09311 2.19164 5.24027C2.1222 5.25647 2.05408 5.27201 2.00051 5.28623C1.92776 5.29913 1.85402 5.31136 1.77929 5.32426C1.30443 5.40263 0.766749 5.4929 0.37754 5.86426C0.0832357 6.15625 -0.0563107 6.63771 0.0210682 7.09174C0.0772835 7.41911 0.238655 7.68861 0.471783 7.84866C0.324631 8.40618 0.597772 9.05431 1.12686 9.40053C1.07593 9.65251 1.12322 9.93723 1.26376 10.2034C1.42083 10.501 1.67016 10.7338 1.94793 10.8446C1.94859 11.3548 2.29746 11.7993 2.84573 11.9547C2.99751 11.9851 3.16285 12 3.35133 12C3.62844 12 3.90621 11.9676 4.17538 11.9375C4.265 11.9272 4.35428 11.9173 4.45712 11.9064C4.61552 11.8733 4.78119 11.8535 4.94785 11.8314C5.2901 11.7874 5.64393 11.7421 5.96502 11.6038C6.22427 11.4881 6.4531 11.3211 6.67465 11.1601C6.74707 11.1078 6.81817 11.0562 6.89026 11.0056C6.96135 10.9541 7.03377 10.8869 7.10784 10.8172C7.23516 10.6971 7.36677 10.5731 7.49408 10.5487C7.60717 10.5268 7.7153 10.5149 7.8198 10.5033C7.93686 10.4911 8.04962 10.4789 8.16072 10.4554H8.21562C8.33268 10.4554 8.46131 10.4623 8.59491 10.4709C8.74669 10.4792 8.90475 10.4898 9.06116 10.4898C9.4464 10.4898 9.92919 10.4402 10.2397 10.0576C10.6984 9.5133 10.7648 8.68395 10.7675 7.86949L10.7681 7.83411C10.7754 7.2369 10.78 6.33316 10.2496 5.86128ZM10.0251 7.7101L10.0244 7.86883C10.0281 8.49216 9.98872 9.12839 9.68449 9.56951C9.58198 9.72658 9.37828 9.73816 9.10018 9.73816H9.06976C9.22716 9.41839 9.28801 9.04704 9.32604 8.71074C9.39019 8.09733 9.38424 7.49781 9.30553 6.9264C9.27114 6.6764 9.21923 6.40392 9.09952 6.16121C9.32571 6.18601 9.55619 6.24817 9.7331 6.3983C10.0347 6.64896 10.0294 7.28783 10.0251 7.7101Z" fill="#222222"/>
</svg>
