<svg width="12" height="12" viewBox="0 0 12 12" fill="none" xmlns="http://www.w3.org/2000/svg">
<path d="M7.47999 2.25C7.65752 2.25 7.83106 2.18402 7.97867 2.0604C8.12628 1.93679 8.24133 1.76109 8.30927 1.55552C8.37721 1.34995 8.39498 1.12375 8.36035 0.905524C8.32571 0.687295 8.24022 0.486839 8.11469 0.329505C7.98916 0.172171 7.82922 0.0650254 7.6551 0.0216171C7.48098 -0.0217913 7.30051 0.000487447 7.13649 0.085636C6.97247 0.170785 6.83229 0.314979 6.73366 0.499984C6.63503 0.684989 6.58238 0.902496 6.58238 1.125C6.58238 1.42337 6.67695 1.70952 6.84529 1.9205C7.01362 2.13147 7.24193 2.25 7.47999 2.25ZM7.40519 5.08594C7.5113 5.19244 7.64325 5.25032 7.77919 5.25H8.976C9.1347 5.25 9.28691 5.17098 9.39913 5.03033C9.51136 4.88968 9.5744 4.69891 9.5744 4.5C9.5744 4.30109 9.51136 4.11032 9.39913 3.96967C9.28691 3.82902 9.1347 3.75 8.976 3.75H7.98901L6.65718 2.41406C6.54848 2.30469 6.41269 2.24641 6.27331 2.24932C6.13394 2.25223 5.99976 2.31615 5.89403 2.43L3.79962 4.68C3.72946 4.75539 3.67419 4.85011 3.63814 4.95675C3.60209 5.06339 3.58623 5.17905 3.59181 5.29466C3.59738 5.41026 3.62425 5.52268 3.6703 5.6231C3.71635 5.72351 3.78032 5.8092 3.85721 5.87344L5.38557 7.15125V9.75C5.38557 9.94891 5.44862 10.1397 5.56084 10.2803C5.67307 10.421 5.82527 10.5 5.98398 10.5C6.14269 10.5 6.29489 10.421 6.40711 10.2803C6.51934 10.1397 6.58238 9.94891 6.58238 9.75V6.75C6.58236 6.62655 6.55803 6.50502 6.51155 6.39618C6.46506 6.28734 6.39786 6.19457 6.31591 6.12609L5.54247 5.47992L6.63175 4.30992L7.40519 5.08594ZM9.5744 6C9.10099 6 8.63821 6.17595 8.24458 6.50559C7.85095 6.83524 7.54416 7.30377 7.36299 7.85195C7.18182 8.40013 7.13442 9.00333 7.22678 9.58527C7.31914 10.1672 7.54711 10.7018 7.88186 11.1213C8.21661 11.5409 8.64312 11.8266 9.10743 11.9424C9.57175 12.0581 10.053 11.9987 10.4904 11.7716C10.9278 11.5446 11.3016 11.1601 11.5646 10.6667C11.8276 10.1734 11.968 9.59334 11.968 9C11.968 8.20435 11.7158 7.44129 11.2669 6.87868C10.8181 6.31607 10.2092 6 9.5744 6ZM9.5744 10.5C9.3377 10.5 9.10631 10.412 8.90949 10.2472C8.71268 10.0824 8.55928 9.84811 8.4687 9.57403C8.37811 9.29994 8.35441 8.99834 8.40059 8.70737C8.44677 8.41639 8.56075 8.14912 8.72813 7.93934C8.89551 7.72956 9.10876 7.5867 9.34092 7.52882C9.57307 7.47094 9.81371 7.50065 10.0324 7.61418C10.2511 7.72771 10.438 7.91997 10.5695 8.16665C10.701 8.41332 10.7712 8.70333 10.7712 9C10.7712 9.39782 10.6451 9.77936 10.4207 10.0607C10.1962 10.342 9.89182 10.5 9.5744 10.5ZM2.39356 6C1.92014 6 1.45736 6.17595 1.06373 6.50559C0.670106 6.83524 0.36331 7.30377 0.182143 7.85195C0.000976073 8.40013 -0.0464255 9.00333 0.0459327 9.58527C0.138291 10.1672 0.366261 10.7018 0.701014 11.1213C1.03577 11.5409 1.46227 11.8266 1.92658 11.9424C2.3909 12.0581 2.87218 11.9987 3.30955 11.7716C3.74693 11.5446 4.12076 11.1601 4.38377 10.6667C4.64679 10.1734 4.78717 9.59334 4.78717 9C4.78717 8.20435 4.53499 7.44129 4.0861 6.87868C3.63721 6.31607 3.02838 6 2.39356 6ZM2.39356 10.5C2.15685 10.5 1.92546 10.412 1.72864 10.2472C1.53183 10.0824 1.37843 9.84811 1.28785 9.57403C1.19727 9.29994 1.17357 8.99834 1.21974 8.70737C1.26592 8.41639 1.37991 8.14912 1.54728 7.93934C1.71466 7.72956 1.92791 7.5867 2.16007 7.52882C2.39223 7.47094 2.63287 7.50065 2.85155 7.61418C3.07024 7.72771 3.25716 7.91997 3.38866 8.16665C3.52017 8.41332 3.59036 8.70333 3.59036 9C3.59036 9.39782 3.46427 9.77936 3.23983 10.0607C3.01538 10.342 2.71097 10.5 2.39356 10.5Z" fill="#222222"/>
</svg>
