<svg width="8" height="12" viewBox="0 0 8 12" fill="none" xmlns="http://www.w3.org/2000/svg">
<path d="M6.54192 2.13498H5.89324V0.71582H5.05647V2.13498H4.40779V0.71582H3.57093V2.13498H2.92225V0.71582H2.08548V2.13498H1.4368V0.71582H0V12H7.97872V0.71582H6.54192V2.13498ZM2.24613 9.52033L1.54128 8.607L2.03877 8.15583L2.31319 8.51133L2.9856 7.8582L3.41856 8.38178L2.24613 9.52033ZM2.24613 7.49885L1.54128 6.58525L2.03877 6.13408L2.31319 6.48967L2.9856 5.83644L3.41856 6.36003L2.24613 7.49885ZM2.24613 5.47719L1.54128 4.56359L2.03877 4.11242L2.31319 4.46792L2.9856 3.81478L3.41856 4.33837L2.24613 5.47719ZM6.41413 9.1294H3.90659V8.42628H6.41413V9.1294ZM6.41413 7.10774H3.90659V6.40462H6.41413V7.10774ZM6.41413 5.08599H3.90659V4.38286H6.41413V5.08599Z" fill="#222222"/>
<path d="M1.43683 0H2.08551V0.715759H1.43683V0Z" fill="#222222"/>
<path d="M2.92242 0H3.5711V0.715759H2.92242V0Z" fill="#222222"/>
<path d="M4.40778 0H5.05646V0.715759H4.40778V0Z" fill="#222222"/>
<path d="M5.89313 0H6.5418V0.715759H5.89313V0Z" fill="#222222"/>
</svg>
