<svg width="20" height="20" viewBox="0 0 20 20" fill="none" xmlns="http://www.w3.org/2000/svg">
<rect width="20" height="20" fill="white"/>
<path d="M10 2C5.5888 2 2 5.58885 2 10C2 14.4112 5.5888 18 10 18C14.4112 18 18 14.4112 18 10C18 5.58885 14.4112 2 10 2ZM10 16.5455C6.39079 16.5455 3.45455 13.6092 3.45455 10C3.45455 6.39088 6.39079 3.45455 10 3.45455C13.6092 3.45455 16.5455 6.39088 16.5455 10C16.5455 13.6092 13.6092 16.5455 10 16.5455Z" fill="black"/>
<path d="M9.9999 5.39392C9.4653 5.39392 9.0304 5.82912 9.0304 6.36405C9.0304 6.8985 9.4653 7.33331 9.9999 7.33331C10.5345 7.33331 10.9694 6.8985 10.9694 6.36405C10.9694 5.82912 10.5345 5.39392 9.9999 5.39392Z" fill="black"/>
<path d="M9.99998 8.78784C9.59833 8.78784 9.27271 9.11347 9.27271 9.51511V13.8788C9.27271 14.2804 9.59833 14.606 9.99998 14.606C10.4016 14.606 10.7272 14.2804 10.7272 13.8788V9.51511C10.7272 9.11347 10.4016 8.78784 9.99998 8.78784Z" fill="black"/>
</svg>
