<svg width="20" height="20" viewBox="0 0 20 20" fill="none" xmlns="http://www.w3.org/2000/svg">
<rect width="20" height="20" fill="white"/>
<path d="M11.0707 12.7481L11.0693 12.7474C10.9469 12.6862 10.8367 12.631 10.7435 12.5732C9.75465 11.9451 8.85435 11.1257 7.98905 10.0626C7.59112 9.55954 7.31963 9.13512 7.12054 8.71085C7.35258 8.49561 7.57069 8.27428 7.78133 8.06052C7.80554 8.03595 7.82965 8.01149 7.85367 7.98714C7.90117 7.93963 7.94862 7.89134 7.99571 7.84341L7.9959 7.84322C8.04323 7.79504 8.09019 7.74724 8.1371 7.70033C8.50723 7.3302 8.69826 6.89885 8.69826 6.46119C8.69826 6.02354 8.50723 5.59219 8.1371 5.22206L7.2152 4.30016C7.11031 4.19526 7.0034 4.08835 6.90339 3.98166L6.9034 3.98166L6.90229 3.98052C6.69982 3.7713 6.48589 3.55392 6.26466 3.34964C5.9211 3.01017 5.50539 2.82554 5.06429 2.82554C4.62294 2.82554 4.20046 3.01037 3.84688 3.34981L3.84687 3.34979L3.84542 3.35124L3.83867 3.35799L3.83867 3.35799L3.83836 3.3583L2.69051 4.51628C2.69046 4.51633 2.6904 4.51639 2.69035 4.51644C2.24161 4.96525 1.9849 5.51391 1.92881 6.14846H1.92881L1.92876 6.14908C1.84584 7.15787 2.14288 8.09352 2.36691 8.69772C2.91859 10.1859 3.74222 11.5633 4.96715 13.0359L4.96737 13.0361C6.45534 14.8129 8.24621 16.2165 10.2922 17.2055L10.2929 17.2058C11.0719 17.575 12.1229 18.0177 13.301 18.0933L13.3027 18.0933C13.3733 18.0967 13.4499 18.1002 13.5202 18.1002C14.327 18.1002 15.0092 17.809 15.5422 17.2305L15.5518 17.2201L15.5528 17.2179C15.5537 17.217 15.5546 17.216 15.5554 17.215C15.5578 17.2121 15.5606 17.2087 15.5634 17.2045C15.7213 17.014 15.9016 16.8396 16.0964 16.6512C16.1117 16.6365 16.127 16.6216 16.1424 16.6067C16.288 16.4679 16.4377 16.3216 16.5842 16.1683C16.9336 15.8048 17.122 15.3756 17.122 14.9306C17.122 14.4816 16.9297 14.0551 16.5726 13.7014C16.5725 13.7013 16.5724 13.7013 16.5724 13.7012L14.7195 11.8416C14.3761 11.4844 13.9562 11.2881 13.5066 11.2881C13.0606 11.2881 12.6377 11.4809 12.281 11.8375L11.2663 12.849C11.2291 12.8296 11.1921 12.8106 11.1559 12.792C11.1269 12.7771 11.0983 12.7625 11.0707 12.7481ZM15.922 15.3951C15.9023 15.4188 15.881 15.4425 15.8583 15.4662L15.857 15.4649V15.369C15.8653 15.3692 15.8746 15.3704 15.8845 15.3735C15.8969 15.3774 15.9102 15.3843 15.922 15.3951ZM15.4529 15.7322C15.4275 15.7569 15.4018 15.7819 15.3756 15.8075C15.1562 16.0168 14.9309 16.2385 14.7186 16.4883C14.3976 16.8307 14.023 16.9918 13.5235 16.9918C13.4722 16.9918 13.4216 16.9918 13.3748 16.9886L13.3746 16.9886C12.3918 16.9258 11.4743 16.5413 10.7775 16.2081C8.87931 15.2891 7.21233 13.9845 5.82665 12.3305C4.68084 10.9494 3.91741 9.6759 3.4122 8.31082L3.41209 8.31054C3.10122 7.47819 2.99082 6.8384 3.03985 6.23989C3.07165 5.86829 3.21341 5.56284 3.47693 5.29932L4.62732 4.14892C4.78097 4.00505 4.93289 3.93731 5.07105 3.93731C5.24366 3.93731 5.39153 4.04256 5.49337 4.14441L5.56408 4.0737L5.49337 4.14441L5.5035 4.15454L5.50346 4.15458L5.50594 4.15689C5.71 4.34758 5.90442 4.54531 6.11022 4.75786L6.11024 4.75788C6.16291 4.81225 6.21637 4.86656 6.26994 4.92097L6.27117 4.92222C6.32442 4.97631 6.37777 5.0305 6.43108 5.08548L6.43107 5.08549L6.43216 5.08657L7.35406 6.00848C7.52354 6.17795 7.59324 6.3262 7.59324 6.46119C7.59324 6.59618 7.52354 6.74443 7.35406 6.91391C7.32039 6.94758 7.28756 6.9808 7.2551 7.01364C7.19147 7.07802 7.12926 7.14096 7.0649 7.2031L7.06487 7.20307L7.06282 7.20516C6.77955 7.49518 6.51125 7.76342 6.21999 8.02455L6.21989 8.02444L6.21709 8.02724L6.21575 8.02835L6.21196 8.03153C6.20816 8.03478 6.20041 8.04154 6.19247 8.05192C6.03694 8.21004 5.9687 8.37167 5.95102 8.5244C5.93341 8.6766 5.96704 8.81168 5.9989 8.91257L5.99889 8.91258L5.99939 8.91408L6.00446 8.92928L6.00952 8.94448L6.00929 8.94455L6.01196 8.95101C6.25624 9.5428 6.5995 10.0978 7.11658 10.7544L7.11603 10.7548L7.12416 10.7629C8.06098 11.9163 9.05052 12.8176 10.1437 13.5089C10.2865 13.5994 10.4321 13.6722 10.5661 13.7392L10.5679 13.7401C10.6905 13.8015 10.8009 13.8568 10.8942 13.9146L10.894 13.915L10.9022 13.9191C10.9039 13.92 10.9066 13.9216 10.9142 13.9263C10.9201 13.93 10.931 13.9369 10.9427 13.9428C11.0695 14.0062 11.1928 14.0377 11.3218 14.0377C11.6435 14.0377 11.8441 13.8371 11.9046 13.7766L11.9058 13.7754L13.0607 12.6205C13.171 12.5102 13.3287 12.3965 13.4999 12.3965C13.6676 12.3965 13.815 12.5037 13.9123 12.6104L13.9122 12.6105L13.9155 12.6138L13.9188 12.6171L13.9222 12.6205L15.7829 14.4812L15.7833 14.4816C15.9456 14.6423 16.0146 14.7931 16.0149 14.9342C16.0152 15.0732 15.949 15.2247 15.7935 15.3892C15.7873 15.394 15.7809 15.4001 15.7751 15.4078C15.7742 15.409 15.7732 15.4104 15.7721 15.4119C15.6696 15.5216 15.565 15.6232 15.4529 15.7322ZM6.21747 8.02693L6.21724 8.02715L6.21747 8.02693Z" fill="black" stroke="black" stroke-width="0.2"/>
<path d="M14.728 9.81577L14.728 9.81583L14.7316 9.81525C15.0376 9.76563 15.2383 9.47654 15.1892 9.17373L15.189 9.17295C15.0032 8.08183 14.4868 7.08711 13.699 6.29928C12.9111 5.51145 11.9164 4.99506 10.8253 4.8092L10.8253 4.80919L10.8245 4.80907C10.521 4.75985 10.2368 4.9611 10.1833 5.26171C10.13 5.56088 10.3265 5.85476 10.6335 5.90471C11.4972 6.04982 12.282 6.45854 12.9092 7.0857C13.5361 7.71268 13.9417 8.49752 14.0902 9.36173C14.1357 9.63428 14.3712 9.82329 14.6379 9.82329C14.6689 9.82329 14.6968 9.81974 14.72 9.81678C14.7227 9.81644 14.7254 9.81609 14.728 9.81577Z" fill="black" stroke="black" stroke-width="0.2"/>
<path d="M10.3116 2.36106L10.3116 2.36106L10.3113 2.36259C10.262 2.66651 10.4638 2.95053 10.7676 3.00389L10.7682 3.00399C12.321 3.26725 13.7375 4.00362 14.8644 5.12725C15.9913 6.25408 16.7243 7.67041 16.9876 9.22335C17.0331 9.49594 17.2686 9.68499 17.5354 9.68499C17.5664 9.68499 17.5942 9.68144 17.6174 9.67848C17.6202 9.67813 17.6228 9.67779 17.6255 9.67746L17.6255 9.67749L17.6279 9.67712C17.9303 9.63156 18.1363 9.34261 18.0831 9.04138C17.779 7.25804 16.9385 5.6352 15.6475 4.34418C14.3565 3.05325 12.7338 2.21273 10.9506 1.90862C10.6478 1.8549 10.3648 2.06236 10.3116 2.36106Z" fill="black" stroke="black" stroke-width="0.2"/>
</svg>
