<svg width="20" height="20" viewBox="0 0 20 20" fill="none" xmlns="http://www.w3.org/2000/svg">
<rect width="20" height="20" fill="white"/>
<path d="M10 14.7094C10.4867 14.7094 10.8813 14.3148 10.8813 13.8281C10.8813 13.3414 10.4867 12.9469 10 12.9469C9.5133 12.9469 9.11875 13.3414 9.11875 13.8281C9.11875 14.3148 9.5133 14.7094 10 14.7094Z" fill="#222222" stroke="#222222" stroke-width="0.2"/>
<path d="M10 1.9C5.5234 1.9 1.9 5.5228 1.9 10C1.9 14.4766 5.5228 18.1 10 18.1C14.4766 18.1 18.1 14.4772 18.1 10C18.1 5.5234 14.4772 1.9 10 1.9ZM10 16.65C6.32469 16.65 3.35 13.6758 3.35 10C3.35 6.32469 6.3242 3.35 10 3.35C13.6753 3.35 16.65 6.3242 16.65 10C16.65 13.6753 13.6758 16.65 10 16.65Z" fill="#222222" stroke="#222222" stroke-width="0.2"/>
<path d="M10 5.91562C8.56627 5.91562 7.4 7.0819 7.4 8.51562C7.4 8.91604 7.72458 9.24062 8.125 9.24062C8.52542 9.24062 8.85 8.91604 8.85 8.51562C8.85 7.8816 9.36598 7.36563 10 7.36563C10.634 7.36563 11.15 7.8816 11.15 8.51562C11.15 9.14965 10.634 9.66563 10 9.66563C9.59958 9.66563 9.275 9.99021 9.275 10.3906V11.9531C9.275 12.3535 9.59958 12.6781 10 12.6781C10.4004 12.6781 10.725 12.3535 10.725 11.9531V11.0128C11.8069 10.6982 12.6 9.69804 12.6 8.51562C12.6 7.0819 11.4337 5.91562 10 5.91562Z" fill="#222222" stroke="#222222" stroke-width="0.2"/>
</svg>
