<svg width="20" height="20" viewBox="0 0 20 20" fill="none" xmlns="http://www.w3.org/2000/svg">
<rect width="20" height="20" fill="white"/>
<path d="M10.2166 8.875C10.2166 8.5022 9.91443 8.2 9.54163 8.2H6.19788C5.82507 8.2 5.52288 8.5022 5.52288 8.875C5.52288 9.2478 5.82507 9.55 6.19788 9.55H9.54163C9.91443 9.55 10.2166 9.2478 10.2166 8.875Z" fill="#222222" stroke="#222222" stroke-width="0.1"/>
<path d="M6.19788 10.7C5.82507 10.7 5.52288 11.0022 5.52288 11.375C5.52288 11.7478 5.82507 12.05 6.19788 12.05H7.54163C7.91443 12.05 8.21663 11.7478 8.21663 11.375C8.21663 11.0022 7.91443 10.7 7.54163 10.7H6.19788Z" fill="#222222" stroke="#222222" stroke-width="0.1"/>
<path d="M8.9792 16.7H5.57642C4.91478 16.7 4.37642 16.1616 4.37642 15.5V4.5C4.37642 3.83836 4.91478 3.3 5.57642 3.3H13.2604C13.9221 3.3 14.4604 3.83836 14.4604 4.5V8C14.4604 8.3728 14.7626 8.675 15.1354 8.675C15.5082 8.675 15.8104 8.3728 15.8104 8V4.5C15.8104 3.09389 14.6666 1.95 13.2604 1.95H5.57642C4.1703 1.95 3.02642 3.09389 3.02642 4.5V15.5C3.02642 16.9061 4.1703 18.05 5.57642 18.05H8.97916C9.35197 18.05 9.65416 17.7478 9.65416 17.375C9.65416 17.0022 9.35197 16.7 8.9792 16.7Z" fill="#222222" stroke="#222222" stroke-width="0.1"/>
<path d="M13.9369 9.63373C13.8287 9.58537 13.7145 9.5678 13.6042 9.5773C13.494 9.56783 13.3797 9.58543 13.2716 9.63372L13.2716 9.63372L10.2039 11.0045L10.2039 11.0045C9.96078 11.1131 9.80425 11.3545 9.80425 11.6207V14.0008C9.80425 14.991 10.1952 16.0004 10.8763 16.7713C11.6038 17.5945 12.5574 18.05 13.5621 18.05H13.6464C14.6511 18.05 15.6047 17.5945 16.3321 16.7713C17.0132 16.0004 17.4042 14.991 17.4042 14.0008V11.6207C17.4042 11.3545 17.2477 11.1131 17.0046 11.0045L16.9842 11.0501L17.0046 11.0045L13.9369 9.63373ZM13.9369 9.63373L13.9165 9.67937L13.9369 9.63372L13.9369 9.63373ZM13.6042 10.9637L16.0542 12.0584V14.0008C16.0542 14.637 15.7962 15.3132 15.3644 15.83C14.9329 16.3466 14.3316 16.7 13.6464 16.7H13.562C12.8769 16.7 12.2755 16.3466 11.844 15.83C11.4122 15.3131 11.1542 14.637 11.1542 14.0008V12.0585L13.6042 10.9637Z" fill="#222222" stroke="#222222" stroke-width="0.1"/>
<path d="M13.3104 6.375C13.3104 6.0022 13.0082 5.7 12.6354 5.7H6.19788C5.82507 5.7 5.52288 6.0022 5.52288 6.375C5.52288 6.7478 5.82507 7.05 6.19788 7.05H12.6354C13.0082 7.05 13.3104 6.7478 13.3104 6.375Z" fill="#222222" stroke="#222222" stroke-width="0.1"/>
</svg>
