<svg width="20" height="20" viewBox="0 0 20 20" fill="none" xmlns="http://www.w3.org/2000/svg">
<rect width="20" height="20" fill="white"/>
<path d="M16.889 8.32585L16.889 8.32583C17.0533 8.16151 17.0524 7.89683 16.8892 7.73348C16.7259 7.57027 16.4603 7.57022 16.2969 7.73346L16.2969 7.73349M16.889 8.32585L16.2616 7.69812L16.2969 7.73349M16.889 8.32585L16.4411 8.77409L15.8489 8.18189M16.889 8.32585L15.8489 8.18189M16.2969 7.73349L15.8489 8.18189M16.2969 7.73349L15.8489 8.18189M15.5631 6.99999L15.5631 7L14.2382 8.326V4.73206C14.2382 4.34318 14.0867 3.97733 13.8117 3.70236L12.4859 2.37652C12.2109 2.10152 11.8451 1.95 11.4562 1.95H3.40698C2.60396 1.95 1.95073 2.60323 1.95073 3.40625V16.5937C1.95073 17.3968 2.60396 18.05 3.40698 18.05H12.782C13.585 18.05 14.2382 17.3968 14.2382 16.5937V12.4467L17.6227 9.05932C18.1918 8.49024 18.192 7.56902 17.6227 6.99986C17.0549 6.43202 16.1311 6.43206 15.5631 6.99999ZM11.8326 10.7336L11.8325 10.7338L11.0219 14.1968L11.0377 14.2442L11.0377 14.2442L13.0264 13.5813C13.0905 13.56 13.1497 13.5263 13.2007 13.4824V16.5937C13.2007 16.8246 13.0129 17.0125 12.782 17.0125H3.40698C3.17613 17.0125 2.98823 16.8246 2.98823 16.5937V3.40625C2.98823 3.1754 3.17613 2.9875 3.40698 2.9875H10.3882V5.28125C10.3882 5.56774 10.6205 5.8 10.907 5.8H13.2007V9.3644L13.1998 9.3653L13.1559 9.40923L12.9993 9.56602L12.5239 10.0418L12.0485 10.5176L11.8918 10.6744L11.8479 10.7184L11.8383 10.7279L11.8363 10.7299L11.8334 10.7329L11.8326 10.7336ZM11.4258 2.98714C11.5165 2.98719 11.6389 2.99675 11.7523 3.11014L13.0781 4.43598C13.19 4.54789 13.2004 4.66667 13.2009 4.7625H11.4258V2.98714ZM11.99 12.0435L12.1995 11.8341L12.7917 12.4262L12.5822 12.6358L11.6939 12.9319L11.99 12.0435ZM15.7078 9.50801L13.5252 11.6925L12.933 11.1003L15.1156 8.91582L15.7078 9.50801Z" fill="#222222" stroke="#222222" stroke-width="0.1"/>
<path d="M10.907 6.6375H4.34448C4.05799 6.6375 3.82573 6.86976 3.82573 7.15625C3.82573 7.44274 4.05799 7.675 4.34448 7.675H10.907C11.1935 7.675 11.4257 7.44274 11.4257 7.15625C11.4257 6.86976 11.1935 6.6375 10.907 6.6375Z" fill="#222222" stroke="#222222" stroke-width="0.1"/>
<path d="M9.03198 8.5125H4.34448C4.05799 8.5125 3.82573 8.74476 3.82573 9.03125C3.82573 9.31774 4.05799 9.55 4.34448 9.55H9.03198C9.31847 9.55 9.55073 9.31774 9.55073 9.03125C9.55073 8.74476 9.31847 8.5125 9.03198 8.5125Z" fill="#222222" stroke="#222222" stroke-width="0.1"/>
<path d="M9.03198 10.3875H4.34448C4.05799 10.3875 3.82573 10.6198 3.82573 10.9062C3.82573 11.1927 4.05799 11.425 4.34448 11.425H9.03198C9.31847 11.425 9.55073 11.1927 9.55073 10.9062C9.55073 10.6198 9.31847 10.3875 9.03198 10.3875Z" fill="#222222" stroke="#222222" stroke-width="0.1"/>
<path d="M9.03198 12.2625H4.34448C4.05799 12.2625 3.82573 12.4948 3.82573 12.7812C3.82573 13.0677 4.05799 13.3 4.34448 13.3H9.03198C9.31847 13.3 9.55073 13.0677 9.55073 12.7812C9.55073 12.4948 9.31847 12.2625 9.03198 12.2625Z" fill="#222222" stroke="#222222" stroke-width="0.1"/>
<path d="M10.907 15.1375H8.09448C7.80799 15.1375 7.57573 15.3698 7.57573 15.6562C7.57573 15.9427 7.80799 16.175 8.09448 16.175H10.907C11.1935 16.175 11.4257 15.9427 11.4257 15.6562C11.4257 15.3698 11.1935 15.1375 10.907 15.1375Z" fill="#222222" stroke="#222222" stroke-width="0.1"/>
</svg>
